<svg xmlns="http://www.w3.org/2000/svg" version="1.1" viewBox="1111.825 81.88235294117646 1970.4959999999999 92.11764705882354" style="max-height: 500px" width="1970.4959999999999" height="92.11764705882354">
<path transform="translate(0,1)" fill="#FEFEFE" d="M0 0 C10.21039241 0.63814953 20.26856209 1.36691951 30.41015625 2.53787231 C31.78305454 2.6933809 33.15599324 2.84853304 34.52896786 3.00336635 C38.25542519 3.42461908 41.98130215 3.85081442 45.70709491 4.2778995 C49.75137964 4.74057501 53.79620109 5.19851439 57.84095764 5.65704346 C64.86392157 6.4538194 71.88655123 7.25348772 78.90896606 8.05508804 C89.20990375 9.23087719 99.51140885 10.40163525 109.81305373 11.57121025 C126.72710755 13.49160362 143.6407878 15.41526613 160.55419922 17.34130859 C162.07064638 17.51399524 162.07064638 17.51399524 163.61772883 17.69017051 C165.66069021 17.92281575 167.70365155 18.15546138 169.74661285 18.38810741 C170.75712697 18.50318138 171.76764109 18.61825535 172.80877686 18.73681641 C173.8186359 18.85181655 174.82849495 18.9668167 175.86895579 19.0853017 C210.26620623 23.00222506 244.66411748 26.91334427 279.0625 30.8203125 C280.02443874 30.9295781 280.98637747 31.0388437 281.97746587 31.15142038 C368.72826859 41.00520267 455.48658719 50.82381683 577.10652924 63.60928726 C580.91569384 64.00204632 584.7247284 64.39605297 588.53373063 64.7903834 C664.04185249 72.60729893 739.57970614 80.15033619 1698.1328125 143.90625 C1699.11871243 143.93715225 1700.10461235 143.9680545 1701.12038803 143.99989319 C1793.2765342 146.86647527 1885.44820817 148.26884165 2011.3479928 148.25892297 C2022.56452916 148.25005219 2033.78102304 148.25159242 2044.99755859 148.26074219 C2119.40870335 148.31966006 2193.79939046 147.91975493 2383.6416747 144.30910289 C2389.22630075 144.1586151 2394.81101632 144.01182875 2400.39578247 143.86663818 C2423.2646199 143.27140452 2446.13265012 142.64989285 2469 142 C2469.71726352 141.9796167 2470.43452703 141.9592334 2471.17352581 141.93823242 C2510.45250466 140.82057119 2549.72532524 139.54598084 2588.99512482 138.14287567 C2592.36179312 138.02264194 2595.72849105 137.90326023 2599.09519839 137.78412521 C2693.00464385 134.46016744 2786.86352768 130.14691079 3114.50144386 113.1970377 C3124.65132359 112.62539933 3134.80122153 112.05408421 3144.95111549 111.48269865 C3148.75811216 111.26838328 3152.56510813 111.05405544 3156.37210274 110.83970344 C3174.09123352 109.8420331 3191.81040128 108.84502644 3209.52966309 107.84968567 C3211.17149737 107.75745352 3212.81333163 107.66522091 3214.45516586 107.57298785 C3221.06162058 107.2018655 3227.66807544 106.83074567 3234.27453804 106.45976365 C3253.30238243 105.39123107 3272.33005103 104.31969676 3291.35734437 103.24139334 C3304.75390698 102.48220272 3318.15064379 101.72615717 3331.54756081 100.97324604 C3339.65380076 100.51754128 3347.75987116 100.05902382 3355.86573631 99.59669935 C3362.02063539 99.24594192 3368.17580762 98.90021058 3374.33109331 98.55630815 C3376.82872348 98.41597464 3379.32626374 98.27402942 3381.82369947 98.13027728 C3385.24462916 97.93360324 3388.66584572 97.74291766 3392.08718872 97.55358887 C3393.05018808 97.49679181 3394.01318743 97.43999476 3395.00536859 97.38147658 C3403.70539261 96.91102033 3412.24005326 97 3421 97 C3421 122.08 3421 147.16 3421 173 C2292.07 173 1163.14 173 0 173 C0 115.91 0 58.82 0 0 Z"/>
<path transform="translate(0,1)" fill="#E4CF7F" d="M0 0 C10.17803482 0.55995364 20.28065145 1.36831535 30.41015625 2.53787231 C31.78305454 2.6933809 33.15599324 2.84853304 34.52896786 3.00336635 C38.25542519 3.42461908 41.98130215 3.85081442 45.70709491 4.2778995 C49.75137964 4.74057501 53.79620109 5.19851439 57.84095764 5.65704346 C64.86392157 6.4538194 71.88655123 7.25348772 78.90896606 8.05508804 C89.20990375 9.23087719 99.51140885 10.40163525 109.81305373 11.57121025 C126.72710755 13.49160362 143.6407878 15.41526613 160.55419922 17.34130859 C162.07064638 17.51399524 162.07064638 17.51399524 163.61772883 17.69017051 C165.66069021 17.92281575 167.70365155 18.15546138 169.74661285 18.38810741 C170.75712697 18.50318138 171.76764109 18.61825535 172.80877686 18.73681641 C173.8186359 18.85181655 174.82849495 18.9668167 175.86895579 19.0853017 C210.26620623 23.00222506 244.66411748 26.91334427 279.0625 30.8203125 C280.02443874 30.9295781 280.98637747 31.0388437 281.97746587 31.15142038 C368.72826859 41.00520267 455.48658719 50.82381683 577.10652924 63.60928726 C580.91569384 64.00204632 584.7247284 64.39605297 588.53373063 64.7903834 C664.04185249 72.60729893 739.57970614 80.15033619 1698.1328125 143.90625 C1699.11871243 143.93715225 1700.10461235 143.9680545 1701.12038803 143.99989319 C1793.2765342 146.86647527 1885.44820817 148.26884165 2011.3479928 148.25892297 C2022.56452916 148.25005219 2033.78102304 148.25159242 2044.99755859 148.26074219 C2119.40870335 148.31966006 2193.79939046 147.91975493 2383.6416747 144.30910289 C2389.22630075 144.1586151 2394.81101632 144.01182875 2400.39578247 143.86663818 C2423.2646199 143.27140452 2446.13265012 142.64989285 2469 142 C2469.71726352 141.9796167 2470.43452703 141.9592334 2471.17352581 141.93823242 C2510.45250466 140.82057119 2549.72532524 139.54598084 2588.99512482 138.14287567 C2592.36179312 138.02264194 2595.72849105 137.90326023 2599.09519839 137.78412521 C2693.00464385 134.46016744 2786.86352768 130.14691079 3114.50144386 113.1970377 C3124.65132359 112.62539933 3134.80122153 112.05408421 3144.95111549 111.48269865 C3148.75811216 111.26838328 3152.56510813 111.05405544 3156.37210274 110.83970344 C3174.09123352 109.8420331 3191.81040128 108.84502644 3209.52966309 107.84968567 C3211.17149737 107.75745352 3212.81333163 107.66522091 3214.45516586 107.57298785 C3221.06162058 107.2018655 3227.66807544 106.83074567 3234.27453804 106.45976365 C3253.30238243 105.39123107 3272.33005103 104.31969676 3291.35734437 103.24139334 C3304.75390698 102.48220272 3318.15064379 101.72615717 3331.54756081 100.97324604 C3339.65380076 100.51754128 3347.75987116 100.05902382 3355.86573631 99.59669935 C3362.02063539 99.24594192 3368.17580762 98.90021058 3374.33109331 98.55630815 C3376.82872348 98.41597464 3379.32626374 98.27402942 3381.82369947 98.13027728 C3394.89660429 97.37869769 3407.90373706 96.78014201 3421 97 C3421 98.65 3421 100.3 3421 102 C3397.45956626 103.95202637 3373.89484563 105.35488329 3350.30078125 106.46484375 C3349.07324379 106.52262497 3349.07324379 106.52262497 3347.82090759 106.58157349 C3346.14542674 106.66034584 3344.46994557 106.73911166 3342.79446411 106.81787109 C3341.95479095 106.85734863 3341.1151178 106.89682617 3340.25 106.9375 C3339.40476776 106.97713867 3338.55953552 107.01677734 3337.68869019 107.05761719 C3322.62106062 107.76957181 3307.57284235 108.70366219 3292.52139282 109.69647217 C3278.49827997 110.61907379 3264.47582144 111.41169941 3250.4375 112.0625 C3239.30271678 112.57891733 3228.18186819 113.14503906 3217.0625 113.9375 C3201.16726017 115.06587622 3185.25416168 115.82682242 3169.33969116 116.62808228 C3149.95994553 117.60674703 3130.59309155 118.71667576 3111.23095703 119.99780273 C3102.03363162 120.60057477 3092.84333869 121.10880172 3083.6328125 121.4609375 C3074.82446383 121.80194147 3066.03439518 122.28949082 3057.23828125 122.86328125 C3031.95217491 124.49691151 3006.64397913 125.75627932 2981.33991814 127.07525444 C2979.17582924 127.18810861 2977.01174913 127.30112966 2974.84767151 127.41419983 C2925.82071034 129.9753845 2876.78825739 132.41517821 2827.75 134.75 C2826.96821349 134.78722813 2826.18642698 134.82445626 2825.38094997 134.86281252 C2785.00388701 136.78475986 2744.62568097 138.67346514 2704.23144531 140.20214844 C2701.68164045 140.29882341 2699.13183575 140.39550281 2696.58203125 140.4921875 C2694.85178207 140.55737076 2694.85178207 140.55737076 2693.08657837 140.62387085 C2687.15377647 140.85382269 2681.23194061 141.14145329 2675.30859375 141.546875 C2667.80039824 142.05210496 2660.30778794 142.20462884 2652.78598022 142.33047485 C2634.10394863 142.65848222 2615.4404319 143.34923469 2596.77267456 144.12289429 C2508.70934465 147.76922128 2420.5713187 150.53138996 2270.3125 153.0625 C2269.30776414 153.07794845 2269.30776414 153.07794845 2268.28273058 153.09370899 C2249.4209294 153.38354592 2230.55890605 153.65313784 2211.69661129 153.90834951 C2206.33496825 153.98116083 2200.9733738 154.0570995 2195.61178589 154.1338501 C2137.53860875 154.96179066 2079.47055629 155.24037891 2021.3917222 155.24931431 C2017.90452326 155.25000655 2014.41732492 155.25127717 2010.93012619 155.25267792 C1947.59668043 155.27590454 1884.2838163 154.97580945 1820.96267176 153.6743145 C1818.58575135 153.62547773 1816.20882153 153.57712092 1813.83189011 153.52882385 C1780.80131818 152.85481066 1747.78492593 151.94667552 1714.77043152 150.69847107 C1700.36612081 150.15891596 1685.96651519 149.77502665 1671.5546875 149.51171875 C1646.01443087 149.03630024 1620.49981816 148.03581986 1594.97807693 146.97275925 C1591.05337503 146.80952094 1587.12860729 146.64794224 1583.2038269 146.48660278 C1532.75175094 144.40835578 1482.33055234 141.82899462 1431.91273499 139.04045105 C1418.45069927 138.29604265 1404.98785278 137.57112925 1391.5234375 136.87109375 C1297.89786902 131.99609637 1297.89786902 131.99609637 1251.23980713 128.25106812 C1239.83165773 127.3360185 1228.42226767 126.58257237 1216.99691772 125.91757202 C1157.95937524 122.47282141 1098.96328077 117.96753196 1040.03579712 113.00080872 C1029.13044657 112.08563414 1018.22182476 111.21394858 1007.3125 110.34765625 C965.63519191 107.03532451 923.97753187 103.58743673 882.34375 99.76391602 C876.16196931 99.19620384 869.97954319 98.63583973 863.796875 98.07788086 C839.26322883 95.86225663 814.73795344 93.56933861 790.21764755 91.2108345 C786.31118786 90.83520925 782.40466269 90.4602671 778.49814129 90.08528423 C768.9457569 89.16831724 759.39349748 88.25005586 749.84130859 87.33105469 C740.16989486 86.40060118 730.49832561 85.47177854 720.82666016 84.54394531 C709.10908301 83.41982156 697.39164324 82.29427772 685.67435837 81.1671114 C679.32886145 80.55671 672.983315 79.94683629 666.63763428 79.33834839 C660.64443682 78.76359938 654.6514142 78.18705888 648.65851402 77.6092186 C646.45517625 77.39706314 644.25177994 77.18551463 642.04831886 76.97464371 C631.61701376 75.97600905 621.19608508 74.94500392 610.79226685 73.68950462 C604.45686641 72.92558139 598.11305094 72.28287055 591.76171875 71.66796875 C589.31167049 71.42724319 586.86163857 71.18635124 584.41162109 70.9453125 C583.15242859 70.82188477 581.89323608 70.69845703 580.59588623 70.57128906 C561.34029757 68.68046152 542.09395683 66.73747491 522.875 64.5 C506.69988988 62.61822446 490.51281101 60.90043197 474.3125 59.25 C424.60020523 54.17749876 374.94645887 48.51679693 325.30059814 42.83485413 C316.46342001 41.82345868 307.62533318 40.82008453 298.78726196 39.81652832 C294.19147757 39.29461975 289.59574102 38.77229033 285 38.25 C283.1666669 38.04166461 281.33333357 37.83333128 279.5 37.625 C224.49999999 31.375 224.49999999 31.375 221.75003052 31.0625 C219.9165965 30.85415754 218.08316144 30.6458242 216.24972534 30.4375 C211.66792398 29.9168812 207.08614073 29.39610404 202.50439453 28.875 C194.23597925 27.93475 185.96744259 26.99564253 177.69822693 26.06245422 C173.09039594 25.54241964 168.48267298 25.02143266 163.875 24.5 C162.95463959 24.39587799 162.03427917 24.29175598 161.08602905 24.18447876 C151.54213167 23.10342506 142.00015387 22.01005356 132.46484375 20.85546875 C131.67944717 20.76044067 130.8940506 20.6654126 130.08485413 20.56750488 C129.29235764 20.47159058 128.49986115 20.37567627 127.68334961 20.27685547 C126.05973807 20.08036237 124.43612149 19.88391089 122.8125 19.6875 C121.60256882 19.54106049 121.60256882 19.54106049 120.36819458 19.3916626 C107.56701277 17.84797274 94.75509421 16.41125924 81.9375 15.01171875 C81.13656103 14.92422804 80.33562206 14.83673733 79.51041222 14.74659538 C71.40005953 13.86112612 63.28928197 12.97969509 55.17768002 12.10574245 C27.16891037 9.08605676 27.16891037 9.08605676 13.54296875 7.3203125 C12.61486893 7.20050018 11.6867691 7.08068787 10.73054504 6.95724487 C7.08434487 6.47172482 3.55950362 5.94456529 0 5 C0 3.35 0 1.7 0 0 Z"/>
</svg>